<svg xmlns="http://www.w3.org/2000/svg" version="1.1" xmlns:xlink="http://www.w3.org/1999/xlink" width="1000" height="1000"><metadata><rdf:RDF xmlns:rdf="http://www.w3.org/1999/02/22-rdf-syntax-ns#" xmlns:dc="http://purl.org/dc/elements/1.1/"><rdf:Description><dc:creator>RealFaviconGenerator</dc:creator><dc:source>https://realfavicongenerator.net</dc:source></rdf:Description></rdf:RDF></metadata><style>
    #light-icon {
      display: inline;
    }
    #dark-icon {
      display: none;
    }

    @media (prefers-color-scheme: dark) {
      #light-icon {
        display: none;
      }
      #dark-icon {
        display: inline;
      }
    }
  </style><g id="light-icon"><svg xmlns="http://www.w3.org/2000/svg" version="1.1" xmlns:xlink="http://www.w3.org/1999/xlink" width="1000" height="1000"><g><g transform="matrix(24.390243902439025,0,0,24.390243902439025,85.3658536585366,0)" style="filter: contrast(1) brightness(1)"><svg xmlns="http://www.w3.org/2000/svg" width="34" height="41" viewBox="0 0 34 41" fill="none"><path d="M8.95038 19.0355C8.73635 19.7972 10.4934 24.8245 18.2298 23.3884C25.3299 22.0704 24.7298 10.8884 18.2298 13.8884C14.2596 15.7208 12.2883 33.409 22.2298 31.8884C29.9216 30.7119 28.75 6.88571 31.434 1.38842C28.4393 4.49822 5.89504 5.06008 2.22981 17.8884C1.27183 21.2414 3.2298 26.8884 8.95037 28.3884L2.22981 38.3884" stroke="black" stroke-width="4" stroke-linecap="round"></path></svg></g></g></svg></g><g id="dark-icon"><svg xmlns="http://www.w3.org/2000/svg" version="1.1" xmlns:xlink="http://www.w3.org/1999/xlink" width="1000" height="1000"><g><g transform="matrix(24.390243902439025,0,0,24.390243902439025,85.3658536585366,0)"><svg xmlns="http://www.w3.org/2000/svg" width="34" height="41" viewBox="0 0 34 41" fill="none"><path d="M8.95038 19.0355C8.73635 19.7972 10.4934 24.8245 18.2298 23.3884C25.3299 22.0704 24.7298 10.8884 18.2298 13.8884C14.2596 15.7208 12.2883 33.409 22.2298 31.8884C29.9216 30.7119 28.75 6.88571 31.434 1.38842C28.4393 4.49822 5.89504 5.06008 2.22981 17.8884C1.27183 21.2414 3.2298 26.8884 8.95037 28.3884L2.22981 38.3884" stroke="white" stroke-width="4" stroke-linecap="round"></path></svg></g></g></svg></g></svg>