<svg width="55" height="55" viewBox="0 0 55 55" fill="none" xmlns="http://www.w3.org/2000/svg">
<path d="M52.9461 27.4461C52.9461 45.7837 45.7851 52.9461 27.4475 52.9461C9.10998 52.9461 1.94612 45.7854 1.94612 27.4478C1.94612 9.11028 9.10666 1.94613 27.4442 1.94613C45.7818 1.94613 52.9461 9.10857 52.9461 27.4461Z" fill="black" stroke="black" stroke-width="3.89226"/>
<path d="M19.8991 26.5932C19.6851 27.355 21.4421 32.3822 29.1785 30.9461C36.2786 29.6281 35.6785 18.4461 29.1785 21.4461C25.2083 23.2785 23.237 40.9667 33.1785 39.4461C40.8703 38.2697 39.6987 14.4434 42.3827 8.94613C39.388 12.0559 16.8438 12.6178 13.1785 25.4461C12.2206 28.7991 14.1785 34.4461 19.8991 35.9461L13.1785 45.9461" stroke="white" stroke-width="4" stroke-linecap="round"/>
</svg>
